<?xml version="1.0" encoding="utf-8"?>
<!-- Generator: Adobe Illustrator 16.0.0, SVG Export Plug-In . SVG Version: 6.00 Build 0)  -->
<!DOCTYPE svg PUBLIC "-//W3C//DTD SVG 1.1//EN" "http://www.w3.org/Graphics/SVG/1.1/DTD/svg11.dtd">
<svg version="1.1" id="Layer_1" xmlns="http://www.w3.org/2000/svg" xmlns:xlink="http://www.w3.org/1999/xlink" x="0px" y="0px"
	 width="252.3px" height="232.2px" viewBox="0 0 252.3 232.2" enable-background="new 0 0 252.3 232.2" xml:space="preserve">
<rect x="-67.7" y="-113.1" display="none" fill="#00C3F7" stroke="#000000" stroke-miterlimit="10" width="925.5" height="565.5"/>
<g>
	<path d="M8.5,190.6c2.3,1.4,5.7,2.6,9.2,2.6c5.3,0,8.3-2.8,8.3-6.8c0-3.7-2.1-5.8-7.5-7.9C12.1,176.2,8,172.9,8,167.2
		c0-6.2,5.1-10.8,12.9-10.8c4.1,0,7,0.9,8.8,1.9l-1.4,4.2c-1.3-0.7-4-1.9-7.6-1.9c-5.4,0-7.5,3.2-7.5,6c0,3.7,2.4,5.5,7.9,7.7
		c6.7,2.6,10.2,5.8,10.2,11.7c0,6.1-4.5,11.4-13.9,11.4c-3.8,0-8-1.1-10.2-2.5L8.5,190.6z"/>
	<path d="M43.9,160.3c0.1,1.8-1.2,3.2-3.3,3.2c-1.8,0-3.1-1.4-3.1-3.2c0-1.8,1.4-3.2,3.2-3.2C42.7,157,43.9,158.5,43.9,160.3z
		 M38.1,196.9v-28.6h5.2v28.6H38.1z"/>
	<path d="M52,176c0-3-0.1-5.4-0.2-7.7h4.5l0.2,4.6h0.2c1.6-2.7,4.2-5.3,9-5.3c3.9,0,6.8,2.4,8.1,5.7h0.1c0.9-1.6,2-2.8,3.2-3.7
		c1.7-1.3,3.6-2,6.3-2c3.8,0,9.4,2.5,9.4,12.4v16.8h-5.1v-16.2c0-5.5-2-8.8-6.2-8.8c-3,0-5.3,2.2-6.1,4.7c-0.2,0.7-0.4,1.7-0.4,2.6
		v17.6h-5.1v-17.1c0-4.5-2-7.9-6-7.9c-3.2,0-5.6,2.6-6.4,5.2c-0.3,0.8-0.4,1.7-0.4,2.5v17.2H52V176z"/>
	<path d="M101.2,177.6c0-3.7-0.1-6.6-0.2-9.3h4.7l0.2,4.9h0.1c2.1-3.5,5.5-5.5,10.2-5.5c6.9,0,12.1,5.8,12.1,14.5
		c0,10.3-6.3,15.3-13,15.3c-3.8,0-7.1-1.7-8.8-4.5h-0.1v15.5h-5.1V177.6z M106.3,185.3c0,0.8,0.1,1.5,0.2,2.1
		c0.9,3.6,4.1,6.1,7.8,6.1c5.5,0,8.7-4.5,8.7-11c0-5.7-3-10.6-8.5-10.6c-3.5,0-6.8,2.5-7.8,6.4c-0.2,0.6-0.4,1.4-0.4,2.1V185.3z"/>
	<path d="M134.8,155h5.2v41.9h-5.2V155z"/>
	<path d="M154.5,160.3c0.1,1.8-1.2,3.2-3.3,3.2c-1.8,0-3.1-1.4-3.1-3.2c0-1.8,1.4-3.2,3.2-3.2C153.3,157,154.5,158.5,154.5,160.3z
		 M148.7,196.9v-28.6h5.2v28.6H148.7z"/>
	<path d="M182.9,195.8c-1.4,0.7-4.4,1.7-8.2,1.7c-8.6,0-14.2-5.8-14.2-14.6c0-8.8,6-15.2,15.3-15.2c3.1,0,5.8,0.8,7.2,1.5l-1.2,4
		c-1.2-0.7-3.2-1.4-6-1.4c-6.6,0-10.1,4.8-10.1,10.8c0,6.6,4.2,10.7,9.9,10.7c3,0,4.9-0.8,6.4-1.4L182.9,195.8z"/>
	<path d="M194.8,160.3c0.1,1.8-1.2,3.2-3.3,3.2c-1.8,0-3.1-1.4-3.1-3.2c0-1.8,1.4-3.2,3.2-3.2C193.5,157,194.8,158.5,194.8,160.3z
		 M189,196.9v-28.6h5.2v28.6H189z"/>
	<path d="M209.1,160.1v8.2h7.4v4h-7.4v15.4c0,3.5,1,5.5,3.9,5.5c1.4,0,2.4-0.2,3-0.4l0.2,3.9c-1,0.4-2.6,0.7-4.6,0.7
		c-2.4,0-4.4-0.8-5.6-2.2c-1.5-1.5-2-4.1-2-7.4v-15.6h-4.4v-4h4.4v-6.8L209.1,160.1z"/>
	<path d="M224.9,183.5c0.1,7,4.6,9.9,9.8,9.9c3.7,0,6-0.6,7.9-1.5l0.9,3.7c-1.8,0.8-5,1.8-9.5,1.8c-8.8,0-14-5.8-14-14.4
		c0-8.6,5.1-15.4,13.4-15.4c9.3,0,11.8,8.2,11.8,13.5c0,1.1-0.1,1.9-0.2,2.4H224.9z M240.1,179.8c0.1-3.3-1.4-8.4-7.2-8.4
		c-5.3,0-7.6,4.8-8,8.4H240.1z M241.3,156l-7.2,8.4h-3.7l5.2-8.4H241.3z"/>
</g>
<g id="Nuage">
	<path d="M71.3,94.4c1.7,0,3.3,0.2,4.9,0.6c3.6-10.2,13.3-17.5,24.8-17.5c3.9,0,7.5,0.9,10.9,2.4c2.5-14.2,14.8-25,29.7-25
		c14.2,0,26.1,9.9,29.3,23.1c7.1,0.4,13.6,3.1,18.9,7.3V32.2c0-7.3-6-13.1-13.4-13.1H66.5c-7.4,0-13.4,5.9-13.4,13.1v71.5
		C57.2,98.1,63.8,94.4,71.3,94.4z"/>
	<path d="M189.4,142.2v-8.1h-136v8.1h0c0,0.1,0,0.2,0.1,0.2l0,0.1h0c1.1,6.1,6.6,10.8,13.1,10.8h109.7
		C182.9,153.3,188.4,148.5,189.4,142.2L189.4,142.2z"/>
</g>
</svg>
