<svg width="325" height="325" xmlns="http://www.w3.org/2000/svg" version="1.1">

 <g>
  <title>Layer 1</title>
  <polygon points="181.4566192626953,64 142.54339599609375,64 142.54339599609375,70.33309173583984 181.4566192626953,70.33309173583984 " id="Path"/>
  <polygon points="181.4566192626953,170.6670684814453 142.54339599609375,170.6670684814453 142.54339599609375,177 181.4566192626953,177 " id="Path"/>
  <polygon points="202.44287109375,79.18167114257812 121.55714416503906,79.18167114257812 121.55714416503906,85.51476287841797 202.44287109375,85.51476287841797 " id="Path"/>
  <polygon points="202.44287109375,155.44012451171875 121.55714416503906,155.44012451171875 121.55714416503906,161.7730712890625 202.44287109375,161.7730712890625 " id="Path"/>
  <polygon points="212.23716735839844,94.43241882324219 111.7628402709961,94.43241882324219 111.7628402709961,100.76556396484375 212.23716735839844,100.76556396484375 " id="Path"/>
  <polygon points="212.23716735839844,140.18826293945312 111.7628402709961,140.18826293945312 111.7628402709961,146.52151489257812 212.23716735839844,146.52151489257812 " id="Path"/>
  <polygon points="215.70899963378906,109.68516540527344 108.29100799560547,109.68516540527344 108.29100799560547,116.0180892944336 215.70899963378906,116.0180892944336 " id="Path"/>
  <polygon points="215.70899963378906,124.93573760986328 108.29100799560547,124.93573760986328 108.29100799560547,131.26898193359375 215.70899963378906,131.26898193359375 " id="Path"/>
  <path id="Shape" d="m28.74249,250.78311c-13.24381,0 -20.01972,-6.47379 -20.55874,-16.56949l7.54562,0c0.38533,6.08844 4.69781,9.47915 13.01312,9.47915c7.46959,0 11.62709,-2.77448 11.62709,-7.70657c0,-4.16172 -2.54077,-6.47379 -7.31494,-7.39861l-10.62539,-2.08086c-8.39362,-1.61845 -13.09046,-6.3964 -13.09046,-13.87209c0,-9.0938 7.16028,-15.02805 18.32599,-15.02805c12.01242,0 18.40299,6.5508 19.1727,16.18409l-7.54562,0c-0.7697,-5.54864 -4.77384,-9.09381 -11.93509,-9.09381c-6.62255,0 -10.47236,2.77448 -10.47236,7.47536c0,3.77638 2.46376,6.08845 7.16157,7.01327l10.93373,2.15793c8.39362,1.61845 12.93678,6.3964 12.93678,14.25743c0,9.78743 -7.08425,15.18225 -19.174,15.18225zm25.95832,-0.77069l0,-36.83829l7.54659,0l0,36.83829l-7.54659,0zm-0.23101,-44.39072l0,-8.09214l8.00828,0l0,8.09214l-8.00828,0zm15.947,44.39072l0,-36.83829l6.77591,0l0.7697,4.39293l0.53902,0c2.69542,-3.46811 6.00621,-5.16362 10.24104,-5.16362c4.62048,0 8.23928,2.15793 10.24135,5.85724l0.53902,0c3.54245,-4.00759 7.16125,-5.85724 11.55073,-5.85724c7.46861,0 12.1661,5.08655 12.1661,13.10171l0,24.50727l-7.54659,0l0,-23.42863c0,-4.46967 -2.92545,-7.62949 -7.08425,-7.62949c-4.69651,0 -8.00828,3.54517 -8.00828,8.63139l0,22.42673l-7.54561,0l0,-23.42863c0,-4.46967 -2.92643,-7.62949 -7.08425,-7.62949c-4.69651,0 -8.00828,3.54517 -8.00828,8.63139l0,22.42673l-7.54561,0zm60.46069,14.64245l0,-51.48074l6.23722,0l0.7697,4.62413l1.07771,0c2.46474,-3.54517 6.31423,-5.39482 11.24272,-5.39482c9.70234,0 16.63193,7.9381 16.63193,19.18983c0,11.25174 -6.92959,19.18984 -16.86261,19.18984c-4.38948,0 -8.08561,-1.54138 -10.85738,-4.54707l-0.69367,0l0,18.41883l-7.54562,0zm7.54562,-33.0616c0,7.9381 3.85078,12.63898 10.47204,12.63898c6.39187,0 10.24135,-4.70088 10.24135,-12.63898c0,-7.93777 -3.84948,-12.63897 -10.24135,-12.63897c-6.62126,0 -10.47204,4.7012 -10.47204,12.63897zm34.26619,18.41915l0,-52.48286l7.54691,0l0,52.48286l-7.54691,0zm15.72278,0l0,-36.83829l7.54529,0l0,36.83829l-7.54529,0zm-0.23101,-44.39072l0,-8.09214l8.00925,0l0,8.09214l-8.00925,0zm31.42389,45.16141c-10.62508,0 -17.86591,-7.70689 -17.86591,-19.18984c0,-11.48294 7.3929,-19.18983 18.02121,-19.18983c9.62533,0 15.32289,5.16362 16.78529,14.25742l-7.08554,0c-1.38475,-5.08622 -4.54251,-7.70656 -9.54769,-7.70656c-6.46757,0 -10.62507,4.54674 -10.62507,12.63897c0,8.16931 4.23515,12.63898 10.47301,12.63898c5.15724,0 8.315,-2.62034 9.69975,-7.70657l7.08554,0c-1.54005,9.24795 -7.70027,14.25743 -16.94059,14.25743zm22.20136,-0.77069l0,-36.83829l7.5482,0l0,36.83829l-7.5482,0zm-0.22971,-44.39072l0,-8.09214l8.00763,0l0,8.09214l-8.00763,0zm29.18984,44.39072c-6.23787,0 -9.54769,-2.85155 -9.54769,-9.40208l0,-21.2707l-8.47029,0l0,-6.16551l3.92778,0c4.77546,0 5.31254,-2.77448 5.31254,-7.6295l0,-3.85345l6.77494,0l0,11.48295l10.088,0l0,6.16551l-10.088,0l0,20.03727c0,2.85155 1.23269,4.16172 4.85311,4.16172l5.23489,0l0,6.47379l-8.08528,0zm28.64952,0.77069c-11.08774,0 -18.63594,-8.09224 -18.63594,-19.18984c0,-11.25173 7.23761,-19.18983 17.94357,-19.18983c10.31771,0 17.09265,7.16741 17.09265,18.11087c0,0.84776 -0.07765,2.08086 -0.15206,3.23689l-27.26154,0c0.77003,6.55086 4.85311,10.63519 11.24304,10.63519c4.92752,0 7.85556,-2.38914 9.0106,-5.85691l6.93025,0c-1.15504,7.09001 -7.23761,12.25363 -16.17057,12.25363zm-10.78037,-22.73501l19.94305,0c-0.38502,-5.54863 -4.23515,-9.24794 -9.85505,-9.24794c-5.39019,0 -9.01061,3.54517 -10.088,9.24794z"/>
  <polygon points="297.8918151855469,207.4493408203125 304.12646484375,195.8021697998047 312.1081848144531,195.8021697998047 312.1081848144531,196.77603149414062 304.12646484375,208.42337036132812 297.8918151855469,208.42337036132812 " id="Path"/>
 </g>
</svg>