<svg height="172" viewBox="0 0 500 172" width="500" xmlns="http://www.w3.org/2000/svg"><g fill="#010101" transform="translate(20 27)"><path d="m75.856875 0h-40.3434375v6.55979167h40.3434375z"/><path d="m75.856875 110.495833h-40.3434375v6.559792h40.3434375z"/><path d="m97.6158333 15.72625h-83.8613541v6.5597917h83.8613541z"/><path d="m97.6158333 94.7216667h-83.8613541v6.5597913h83.8613541z"/><path d="m107.769375 31.524375h-104.17083333v6.5597917h104.17083333z"/><path d="m107.769375 78.9235417h-104.17083333v6.5597916h104.17083333z"/><path d="m111.367917 47.3248958h-111.367917v6.5597917h111.367917z"/><path d="m111.367917 63.1230208h-111.367917v6.5597917h111.367917z"/><path d="m166.151042 87.874375c-13.797605 0-23.117396-7.3839583-23.742709-18.8144792l-.011979-.2060416h8.895729l.014375.1796875c.577396 7.2426041 5.848229 11.2292708 14.844584 11.2292708 10.069687 0 11.157395-5.4241667 11.157395-7.7553125 0-6.52625-4.794062-7.7169792-15.302187-10.3236458-9.125729-2.2808334-17.571042-5.75-17.571042-15.596875 0-9.3389584 7.156354-14.9140625 19.145104-14.9140625s20.32625 6.511875 21.167188 16.9960416l.016771.2108334h-8.898125l-.023959-.1677084c-.910416-6.2555208-5.036041-9.4276041-12.261875-9.4276041-6.466354 0-10.326041 2.4197916-10.326041 6.4711458 0 5.735625 4.738958 6.9167708 11.912083 8.7016667l.745104.1844791c10.889063 2.7767709 20.290313 5.1726042 20.290313 17.4847917 0 7.6115625-5.268438 15.7454167-20.053125 15.7454167z"/><path d="m192.651354 48.223333h7.836771v38.517813h-7.836771z"/><path d="m254.693854 86.7411458v-24.3608333c0-5.1558333-1.114062-8.5866667-6.547812-8.5866667s-8.74 3.7255209-8.74 9.4946875v23.4528125h-7.913438v-24.3608333c0-5.1558333-1.126041-8.5866667-6.624479-8.5866667s-8.74 3.7255209-8.74 9.4946875v23.4528125h-7.836771v-38.5178125h7.836771v4.988125h.225208l.014375-.0215625c1.856771-2.7480208 5.3475-6.0255208 11.444896-6.0255208 5.112709 0 8.555521 2.228125 10.232604 6.6196875l.01198.0311458h.208437l.014375-.0191666c3.5075-4.5233334 7.506146-6.6316667 12.580521-6.6316667 7.678646 0 11.739583 4.4778125 11.739583 12.9494792v26.6272916h-7.913437z"/><path d="m269.660625 99.8894792v-51.6661459h7.913437v4.5329167h.225209l.014375-.0191667c1.559687-2.0819791 5.170208-5.5727083 11.823437-5.5727083 10.232605 0 17.10625 8.179375 17.10625 20.355s-6.873645 20.355-17.10625 20.355c-6.749062 0-10.304479-3.5865625-11.823437-5.72125l-.014375-.0215625h-.225209v17.7579167zm18.464688-46.3210417c-6.463959 0-10.47698 5.3451042-10.47698 13.9533333 0 8.6082292 4.015417 13.9533334 10.47698 13.9533334 7.393541 0 10.704583-7.0078125 10.704583-13.9533334 0-6.9455208-3.311042-13.9533333-10.704583-13.9533333z"/><path d="m312.356771 32.808542h7.913438v53.932604h-7.913438z"/><path d="m327.623021 48.223333h7.836771v38.517813h-7.836771z"/><path d="m360.220729 87.874375c-11.361042 0-18.994167-8.179375-18.994167-20.355s7.604375-20.355 18.919896-20.355c9.511459 0 16.389896 5.83625 17.525521 14.8709375l.02875.2204167h-7.831979l-.016771-.1772917c-.397708-4.1160417-3.13375-8.5123958-9.628854-8.5123958-8.227292 0-11.157396 7.2090625-11.157396 13.9533333s2.930104 13.9533333 11.157396 13.9533333 9.386875-6.1644791 9.628854-8.8142708l.016771-.1772917h7.834375l-.016771.2132292c-.735521 8.9388542-7.915833 15.1823958-17.463229 15.1823958z"/><path d="m383.168021 48.223333h7.836771v38.517813h-7.836771z"/><path d="m442.038438 87.3640625c-11.591042 0-19.080417-7.9901042-19.080417-20.355s6.993437-19.7752083 18.709062-19.7752083 18.261042 7.4582291 18.332917 21.5696875v.1964583h-29.289062v.0479167c0 7.015 4.566458 11.9144791 11.104687 11.9144791 5.635 0 9.45875-3.7854166 9.770208-7.2929166l.016771-.1796875h7.752917l-.031146.2228125c-1.133229 8.2919791-7.918229 13.6490625-17.285937 13.6490625zm10.208645-24.1595833v-.0479167c0-6.080625-4.350833-10.3260417-10.58-10.3260417-6.229166 0-10.95375 4.3436459-10.95375 10.3260417v.0479167h21.536146z"/><path d="m411.84375 86.7411458c-6.720313 0-9.849271-3.0786458-9.849271-9.68875l-.007187-.6684375v-21.6607291h-5.594271v-6.4016667h.304271c2.376666.0023958 4.187916-.2228125 5.29-1.3320833 1.365625-1.3728125 1.617187-4.0777084 1.593229-8.2871875v-2.5467709h6.317812v12.1660417h11.406563v6.4016667h-11.406563v20.9491666l-.009583.0982292c-.019167 1.2817708.301875 2.2472917.982292 2.9396875 1.25302 1.2721875 3.572187 1.3776042 5.649375 1.3776042l2.942083-.014375c.646875 0 1.15.0119791 1.595625.043125l.184479.0119791v6.6125h-9.396458z"/><path d="m192.42974 32.9103646h8.284791v7.8367708h-8.284791z" transform="matrix(0 1 -1 0 233.400885 -159.743385)"/><path d="m327.39901 32.9103646h8.284792v7.8367708h-8.284792z" transform="matrix(0 1 -1 0 368.370156 -294.712656)"/><path d="m382.94401 32.9103646h8.284792v7.8367708h-8.284792z" transform="matrix(0 1 -1 0 423.915156 -350.257656)"/><path d="m438.008646 43.6784375v-.8984375l6.444792-12.0797917h8.196145v.9439584l-8.25125 12.0342708z"/></g></svg>